<svg xmlns="http://www.w3.org/2000/svg" xmlns:xlink="http://www.w3.org/1999/xlink" width="48" zoomAndPan="magnify" viewBox="0 0 36 38.249999" height="51" preserveAspectRatio="xMidYMid meet" version="1.2"><defs><clipPath id="92d7a2655b"><path d="M 0.355469 0 L 35.550781 0 L 35.550781 37.316406 L 0.355469 37.316406 Z M 0.355469 0 "/></clipPath></defs><g id="4c9b8178e5"><g clip-rule="nonzero" clip-path="url(#92d7a2655b)"><path style=" stroke:none;fill-rule:evenodd;fill:#ffffff;fill-opacity:1;" d="M 0.488281 22.292969 C 0.390625 21.492188 0.308594 20.148438 0.378906 18.625 C 0.449219 17.101562 0.667969 15.40625 0.972656 13.910156 C 1.277344 12.40625 1.675781 11.101562 2.035156 10.195312 C 2.398438 9.289062 2.730469 8.78125 2.820312 8.6875 C 2.914062 8.597656 2.765625 8.929688 2.492188 9.75 C 2.214844 10.5625 1.808594 11.867188 1.570312 13.183594 C 1.332031 14.507812 1.265625 15.847656 1.28125 16.953125 C 1.296875 18.058594 1.394531 18.933594 1.464844 19.441406 C 1.535156 19.953125 1.574219 20.097656 1.5 20.386719 C 1.421875 20.667969 1.226562 21.097656 1.101562 21.5 C 0.972656 21.902344 0.917969 22.277344 0.878906 22.558594 C 0.847656 22.839844 0.828125 23.03125 0.824219 23.1875 C 0.820312 23.34375 0.828125 23.464844 0.769531 23.398438 C 0.710938 23.335938 0.585938 23.089844 0.488281 22.292969 Z M 15.65625 3.46875 C 15.988281 2.925781 16.558594 2.132812 17.179688 1.550781 C 17.800781 0.964844 18.476562 0.59375 19.152344 0.402344 C 19.832031 0.210938 20.507812 0.195312 21.371094 0.324219 C 22.238281 0.453125 23.292969 0.726562 24.269531 1.054688 C 25.238281 1.382812 26.132812 1.769531 26.851562 2.148438 C 27.570312 2.527344 28.113281 2.90625 28.605469 3.265625 C 29.09375 3.628906 29.527344 3.980469 29.832031 4.257812 C 30.140625 4.53125 30.320312 4.730469 30.238281 4.753906 C 30.152344 4.777344 29.808594 4.613281 29.078125 4.386719 C 28.351562 4.15625 27.25 3.855469 26.089844 3.59375 C 24.925781 3.335938 23.707031 3.121094 22.53125 3.085938 C 21.359375 3.050781 20.234375 3.199219 19.230469 3.386719 C 18.226562 3.582031 17.339844 3.820312 16.722656 4 C 16.105469 4.179688 15.753906 4.300781 15.53125 4.390625 C 15.308594 4.484375 15.210938 4.542969 15.214844 4.425781 C 15.21875 4.308594 15.320312 4.015625 15.65625 3.46875 Z M 22.199219 31.523438 C 22.933594 31.480469 24.5 31.449219 26.046875 31.085938 C 27.589844 30.726562 29.121094 30.027344 30.335938 29.328125 C 31.554688 28.632812 32.464844 27.933594 33.1875 27.335938 C 33.90625 26.742188 34.445312 26.242188 34.792969 25.878906 C 35.136719 25.515625 35.289062 25.285156 35.386719 25.128906 C 35.488281 24.96875 35.527344 24.875 35.546875 24.972656 C 35.5625 25.070312 35.554688 25.355469 35.316406 26.0625 C 35.074219 26.765625 34.601562 27.890625 33.828125 29.074219 C 33.058594 30.257812 31.988281 31.5 31.15625 32.328125 C 30.320312 33.160156 29.722656 33.578125 28.949219 33.777344 C 28.175781 33.976562 27.234375 33.957031 26.238281 33.730469 C 25.238281 33.507812 24.183594 33.085938 23.410156 32.707031 C 22.636719 32.332031 22.136719 32.007812 21.847656 31.816406 C 21.554688 31.625 21.464844 31.566406 22.199219 31.523438 Z M 13.914062 28.535156 C 14.144531 29.046875 14.550781 29.878906 15.019531 30.679688 C 15.484375 31.480469 16.015625 32.246094 16.648438 33.011719 C 17.28125 33.773438 18.011719 34.535156 18.769531 35.109375 C 19.527344 35.6875 20.308594 36.078125 21.09375 36.3125 C 21.878906 36.542969 22.667969 36.625 23.625 36.492188 C 24.585938 36.367188 25.710938 36.035156 26.472656 35.785156 C 27.230469 35.53125 27.617188 35.355469 27.800781 35.25 C 27.984375 35.144531 27.953125 35.105469 27.601562 35.027344 C 27.242188 34.953125 26.5625 34.84375 25.472656 34.457031 C 24.386719 34.074219 22.882812 33.417969 21.628906 32.753906 C 20.375 32.089844 19.367188 31.414062 18.433594 30.867188 C 17.496094 30.320312 16.632812 29.898438 15.949219 29.480469 C 15.265625 29.066406 14.761719 28.660156 14.441406 28.402344 C 14.121094 28.140625 13.988281 28.03125 13.875 27.929688 C 13.765625 27.828125 13.671875 27.726562 13.65625 27.78125 C 13.636719 27.828125 13.6875 28.023438 13.914062 28.535156 Z M 8.382812 12.03125 C 8.3125 11.160156 8.257812 9.882812 8.34375 8.789062 C 8.425781 7.703125 8.648438 6.804688 8.988281 5.914062 C 9.328125 5.023438 9.785156 4.140625 10.289062 3.476562 C 10.796875 2.8125 11.351562 2.363281 12.007812 1.941406 C 12.660156 1.515625 13.417969 1.109375 14.042969 0.828125 C 14.667969 0.550781 15.167969 0.398438 15.667969 0.265625 C 16.164062 0.136719 16.65625 0.0273438 16.886719 0.00390625 C 17.113281 -0.0195312 17.074219 0.046875 16.863281 0.210938 C 16.65625 0.375 16.289062 0.644531 15.796875 1.359375 C 15.308594 2.070312 14.695312 3.226562 14.1875 4.089844 C 13.671875 4.964844 13.253906 5.546875 12.617188 6.4375 C 11.972656 7.324219 11.109375 8.523438 10.496094 9.507812 C 9.882812 10.492188 9.519531 11.265625 9.277344 11.925781 C 9.035156 12.585938 8.917969 13.125 8.851562 13.457031 C 8.785156 13.789062 8.769531 13.914062 8.742188 13.941406 C 8.707031 13.964844 8.660156 13.890625 8.597656 13.621094 C 8.53125 13.355469 8.453125 12.898438 8.382812 12.03125 Z M 12.699219 30.488281 C 12.695312 30.332031 12.730469 30.117188 12.878906 29.96875 C 13.023438 29.824219 13.28125 29.746094 13.488281 29.761719 C 13.6875 29.785156 13.835938 29.90625 13.9375 30.066406 C 14.042969 30.226562 14.105469 30.421875 14.082031 30.585938 C 14.054688 30.753906 13.941406 30.894531 13.773438 30.984375 C 13.609375 31.070312 13.398438 31.109375 13.226562 31.082031 C 13.054688 31.054688 12.917969 30.953125 12.832031 30.855469 C 12.746094 30.753906 12.703125 30.648438 12.699219 30.488281 Z M 6.441406 11.839844 C 6.382812 11.609375 6.4375 11.378906 6.574219 11.21875 C 6.707031 11.054688 6.921875 10.96875 7.105469 10.949219 C 7.289062 10.925781 7.441406 10.972656 7.570312 11.070312 C 7.703125 11.167969 7.8125 11.316406 7.859375 11.492188 C 7.90625 11.664062 7.894531 11.859375 7.808594 12.023438 C 7.722656 12.1875 7.570312 12.320312 7.398438 12.394531 C 7.226562 12.46875 7.03125 12.492188 6.851562 12.394531 C 6.667969 12.292969 6.5 12.066406 6.441406 11.839844 Z M 9.945312 23.269531 C 9.859375 23.464844 9.738281 23.75 9.664062 24.101562 C 9.589844 24.453125 9.566406 24.871094 9.574219 25.167969 C 9.582031 25.464844 9.625 25.640625 9.691406 25.757812 C 9.757812 25.878906 9.847656 25.941406 9.96875 25.964844 C 10.089844 25.992188 10.234375 25.980469 10.324219 25.859375 C 10.417969 25.734375 10.453125 25.492188 10.394531 25.179688 C 10.339844 24.867188 10.199219 24.484375 10.121094 24.191406 C 10.050781 23.898438 10.042969 23.695312 10.058594 23.511719 C 10.070312 23.332031 10.105469 23.164062 10.117188 23.0625 C 10.136719 22.960938 10.136719 22.914062 10.109375 22.945312 C 10.082031 22.96875 10.03125 23.074219 9.945312 23.269531 Z M 8.527344 20.492188 C 8.296875 20.394531 7.90625 20.21875 7.558594 19.957031 C 7.214844 19.691406 6.910156 19.335938 6.742188 19.050781 C 6.574219 18.761719 6.539062 18.542969 6.554688 18.363281 C 6.570312 18.191406 6.632812 18.058594 6.730469 17.988281 C 6.820312 17.921875 6.941406 17.914062 7.09375 18 C 7.242188 18.085938 7.417969 18.265625 7.605469 18.566406 C 7.789062 18.871094 7.980469 19.285156 8.132812 19.597656 C 8.285156 19.910156 8.402344 20.113281 8.503906 20.25 C 8.601562 20.386719 8.683594 20.457031 8.746094 20.511719 C 8.808594 20.5625 8.851562 20.597656 8.835938 20.605469 C 8.820312 20.609375 8.753906 20.59375 8.527344 20.492188 Z M 7.832031 22.230469 C 7.40625 21.941406 6.648438 21.410156 5.929688 20.742188 C 5.207031 20.074219 4.523438 19.273438 4.027344 18.515625 C 3.53125 17.753906 3.226562 17.03125 2.984375 16.15625 C 2.742188 15.28125 2.570312 14.25 2.605469 13.1875 C 2.636719 12.125 2.878906 11.027344 3.320312 9.835938 C 3.757812 8.644531 4.402344 7.359375 5.074219 6.378906 C 5.753906 5.402344 6.457031 4.730469 7.074219 4.1875 C 7.679688 3.640625 8.195312 3.222656 8.539062 2.957031 C 8.878906 2.6875 9.050781 2.574219 9.0625 2.628906 C 9.074219 2.683594 8.929688 2.914062 8.699219 3.335938 C 8.476562 3.757812 8.164062 4.378906 7.992188 5.179688 C 7.820312 5.980469 7.777344 6.957031 7.605469 7.738281 C 7.4375 8.523438 7.144531 9.113281 6.695312 9.765625 C 6.246094 10.414062 5.652344 11.128906 5.289062 11.644531 C 4.925781 12.167969 4.800781 12.496094 4.707031 12.757812 C 4.609375 13.023438 4.539062 13.21875 4.492188 13.378906 C 4.449219 13.535156 4.425781 13.652344 4.472656 13.671875 C 4.515625 13.695312 4.625 13.628906 4.804688 13.523438 C 4.988281 13.417969 5.234375 13.28125 5.542969 13.222656 C 5.847656 13.164062 6.214844 13.183594 6.539062 13.230469 C 6.863281 13.28125 7.144531 13.363281 7.449219 13.566406 C 7.757812 13.769531 8.09375 14.105469 8.308594 14.492188 C 8.515625 14.878906 8.597656 15.320312 8.632812 15.644531 C 8.671875 15.96875 8.660156 16.167969 8.625 16.332031 C 8.597656 16.496094 8.542969 16.625 8.5 16.714844 C 8.453125 16.804688 8.414062 16.855469 8.382812 16.851562 C 8.351562 16.84375 8.328125 16.777344 8.296875 16.6875 C 8.265625 16.601562 8.226562 16.492188 8.15625 16.429688 C 8.082031 16.367188 7.984375 16.347656 7.882812 16.347656 C 7.777344 16.347656 7.679688 16.367188 7.597656 16.429688 C 7.511719 16.492188 7.449219 16.601562 7.34375 16.71875 C 7.238281 16.835938 7.09375 16.96875 6.902344 17.0625 C 6.710938 17.160156 6.476562 17.214844 6.25 17.230469 C 6.03125 17.242188 5.828125 17.214844 5.617188 17.125 C 5.398438 17.03125 5.179688 16.875 5.019531 16.675781 C 4.855469 16.472656 4.765625 16.226562 4.734375 15.992188 C 4.710938 15.753906 4.757812 15.527344 4.835938 15.355469 C 4.917969 15.183594 5.03125 15.0625 5.164062 14.984375 C 5.300781 14.90625 5.457031 14.871094 5.585938 14.859375 C 5.71875 14.847656 5.828125 14.867188 5.941406 14.917969 C 6.054688 14.964844 6.167969 15.039062 6.238281 15.132812 C 6.304688 15.226562 6.320312 15.335938 6.328125 15.453125 C 6.332031 15.570312 6.320312 15.691406 6.289062 15.777344 C 6.261719 15.863281 6.210938 15.910156 6.132812 15.933594 C 6.050781 15.949219 5.933594 15.945312 5.863281 15.921875 C 5.796875 15.898438 5.773438 15.863281 5.746094 15.851562 C 5.714844 15.839844 5.679688 15.851562 5.664062 15.886719 C 5.648438 15.921875 5.648438 15.980469 5.699219 16.03125 C 5.742188 16.085938 5.835938 16.132812 5.96875 16.140625 C 6.09375 16.152344 6.265625 16.117188 6.40625 16.015625 C 6.550781 15.914062 6.664062 15.742188 6.710938 15.550781 C 6.757812 15.355469 6.734375 15.144531 6.648438 14.972656 C 6.5625 14.800781 6.417969 14.664062 6.25 14.585938 C 6.089844 14.507812 5.910156 14.480469 5.703125 14.488281 C 5.496094 14.496094 5.257812 14.546875 5.0625 14.660156 C 4.867188 14.769531 4.714844 14.949219 4.601562 15.175781 C 4.484375 15.40625 4.402344 15.6875 4.363281 16 C 4.324219 16.3125 4.320312 16.660156 4.417969 17.039062 C 4.515625 17.425781 4.710938 17.847656 4.972656 18.261719 C 5.230469 18.675781 5.554688 19.085938 5.972656 19.511719 C 6.390625 19.9375 6.90625 20.382812 7.316406 20.6875 C 7.726562 20.984375 8.023438 21.148438 8.34375 21.292969 C 8.664062 21.433594 9.003906 21.558594 9.265625 21.632812 C 9.523438 21.707031 9.699219 21.722656 9.808594 21.734375 C 9.914062 21.746094 9.953125 21.75 9.945312 21.808594 C 9.9375 21.867188 9.886719 21.980469 9.789062 22.214844 C 9.691406 22.445312 9.542969 22.796875 9.402344 23.363281 C 9.269531 23.925781 9.144531 24.703125 9.085938 25.308594 C 9.027344 25.914062 9.035156 26.351562 9.089844 26.742188 C 9.148438 27.132812 9.253906 27.484375 9.363281 27.753906 C 9.476562 28.019531 9.597656 28.207031 9.75 28.378906 C 9.90625 28.546875 10.089844 28.710938 10.269531 28.8125 C 10.445312 28.914062 10.621094 28.953125 10.828125 28.96875 C 11.035156 28.980469 11.277344 28.964844 11.453125 28.902344 C 11.632812 28.84375 11.75 28.738281 11.835938 28.585938 C 11.914062 28.4375 11.960938 28.238281 11.945312 28.03125 C 11.925781 27.824219 11.839844 27.601562 11.75 27.4375 C 11.65625 27.277344 11.554688 27.175781 11.449219 27.121094 C 11.335938 27.066406 11.222656 27.054688 11.09375 27.066406 C 10.96875 27.074219 10.832031 27.105469 10.734375 27.167969 C 10.628906 27.230469 10.558594 27.324219 10.515625 27.40625 C 10.480469 27.492188 10.472656 27.570312 10.5 27.636719 C 10.53125 27.703125 10.601562 27.761719 10.671875 27.773438 C 10.746094 27.777344 10.824219 27.726562 10.871094 27.6875 C 10.925781 27.640625 10.949219 27.605469 11.011719 27.585938 C 11.070312 27.566406 11.167969 27.566406 11.253906 27.601562 C 11.335938 27.640625 11.410156 27.71875 11.449219 27.832031 C 11.488281 27.945312 11.5 28.085938 11.46875 28.210938 C 11.4375 28.335938 11.371094 28.441406 11.269531 28.511719 C 11.171875 28.582031 11.039062 28.613281 10.871094 28.601562 C 10.699219 28.59375 10.496094 28.539062 10.335938 28.453125 C 10.175781 28.367188 10.0625 28.242188 9.972656 28.089844 C 9.886719 27.941406 9.824219 27.761719 9.8125 27.570312 C 9.800781 27.375 9.835938 27.164062 9.898438 26.988281 C 9.957031 26.804688 10.042969 26.660156 10.1875 26.539062 C 10.339844 26.425781 10.554688 26.34375 10.71875 26.292969 C 10.882812 26.246094 11.003906 26.234375 11.089844 26.226562 C 11.179688 26.222656 11.234375 26.21875 11.265625 26.183594 C 11.296875 26.148438 11.300781 26.082031 11.289062 25.960938 C 11.277344 25.839844 11.246094 25.667969 11.230469 25.542969 C 11.210938 25.417969 11.210938 25.339844 11.230469 25.308594 C 11.246094 25.273438 11.28125 25.289062 11.375 25.382812 C 11.464844 25.476562 11.621094 25.652344 11.8125 25.863281 C 12.003906 26.074219 12.234375 26.316406 12.398438 26.527344 C 12.566406 26.734375 12.664062 26.90625 12.742188 27.152344 C 12.824219 27.398438 12.882812 27.722656 12.890625 28.007812 C 12.894531 28.292969 12.847656 28.539062 12.75 28.757812 C 12.652344 28.976562 12.496094 29.171875 12.292969 29.339844 C 12.085938 29.507812 11.832031 29.652344 11.5625 29.757812 C 11.296875 29.859375 11.015625 29.917969 10.792969 29.945312 C 10.574219 29.972656 10.410156 29.96875 10.277344 29.964844 C 10.148438 29.957031 10.054688 29.953125 9.992188 29.964844 C 9.933594 29.976562 9.90625 30.003906 9.957031 30.09375 C 10.007812 30.183594 10.136719 30.332031 10.300781 30.546875 C 10.464844 30.753906 10.660156 31.03125 11.035156 31.265625 C 11.414062 31.507812 11.972656 31.710938 12.5625 31.898438 C 13.15625 32.078125 13.785156 32.242188 14.320312 32.492188 C 14.855469 32.742188 15.304688 33.082031 15.699219 33.460938 C 16.09375 33.835938 16.445312 34.253906 16.761719 34.664062 C 17.078125 35.074219 17.359375 35.480469 17.585938 35.769531 C 17.8125 36.054688 17.984375 36.226562 18.25 36.410156 C 18.511719 36.589844 18.867188 36.777344 19.140625 36.898438 C 19.414062 37.015625 19.609375 37.070312 19.761719 37.113281 C 19.917969 37.164062 20.042969 37.207031 20.0625 37.234375 C 20.085938 37.265625 20.003906 37.28125 19.820312 37.300781 C 19.640625 37.320312 19.359375 37.339844 18.597656 37.242188 C 17.839844 37.144531 16.597656 36.921875 15.578125 36.601562 C 14.554688 36.277344 13.746094 35.851562 12.871094 35.195312 C 12.003906 34.542969 11.0625 33.660156 10.324219 32.683594 C 9.585938 31.710938 9.042969 30.644531 8.683594 29.652344 C 8.328125 28.667969 8.152344 27.757812 8.105469 26.835938 C 8.058594 25.917969 8.140625 24.984375 8.199219 24.339844 C 8.265625 23.695312 8.3125 23.335938 8.34375 23.113281 C 8.378906 22.890625 8.398438 22.804688 8.417969 22.738281 C 8.433594 22.675781 8.441406 22.640625 8.398438 22.597656 C 8.355469 22.558594 8.261719 22.519531 7.832031 22.230469 Z M 1.140625 24.632812 C 1.226562 24.566406 1.359375 24.460938 1.441406 24.292969 C 1.527344 24.125 1.5625 23.902344 1.578125 23.699219 C 1.597656 23.492188 1.605469 23.308594 1.710938 23.109375 C 1.820312 22.910156 2.03125 22.691406 2.265625 22.523438 C 2.496094 22.359375 2.75 22.238281 3.007812 22.164062 C 3.265625 22.089844 3.527344 22.058594 3.6875 22.039062 C 3.84375 22.023438 3.894531 22.019531 3.828125 21.972656 C 3.765625 21.925781 3.582031 21.832031 3.347656 21.558594 C 3.109375 21.285156 2.8125 20.828125 2.597656 20.375 C 2.378906 19.929688 2.238281 19.484375 2.152344 18.992188 C 2.066406 18.496094 2.035156 17.953125 2.054688 17.570312 C 2.074219 17.1875 2.144531 16.96875 2.210938 16.804688 C 2.28125 16.640625 2.34375 16.53125 2.390625 16.554688 C 2.4375 16.578125 2.460938 16.738281 2.570312 17.101562 C 2.679688 17.472656 2.878906 18.046875 3.226562 18.664062 C 3.574219 19.277344 4.078125 19.933594 4.59375 20.476562 C 5.113281 21.015625 5.648438 21.445312 6.136719 21.785156 C 6.621094 22.128906 7.0625 22.390625 7.335938 22.554688 C 7.609375 22.71875 7.71875 22.777344 7.761719 22.875 C 7.800781 22.96875 7.777344 23.09375 7.675781 23.613281 C 7.574219 24.136719 7.394531 25.054688 7.304688 25.808594 C 7.210938 26.558594 7.203125 27.144531 7.242188 27.789062 C 7.28125 28.4375 7.363281 29.140625 7.476562 29.691406 C 7.589844 30.242188 7.730469 30.632812 7.835938 30.867188 C 7.941406 31.101562 8.003906 31.175781 7.972656 31.199219 C 7.945312 31.222656 7.824219 31.191406 7.542969 30.96875 C 7.265625 30.746094 6.828125 30.328125 6.425781 29.804688 C 6.023438 29.277344 5.65625 28.644531 5.429688 28.027344 C 5.203125 27.410156 5.117188 26.804688 5.089844 26.332031 C 5.0625 25.859375 5.09375 25.515625 5.109375 25.339844 C 5.121094 25.160156 5.117188 25.140625 5.042969 25.214844 C 4.972656 25.285156 4.828125 25.445312 4.585938 25.578125 C 4.34375 25.714844 4 25.820312 3.667969 25.847656 C 3.335938 25.871094 3.019531 25.8125 2.753906 25.699219 C 2.488281 25.589844 2.285156 25.421875 2.097656 25.28125 C 1.910156 25.140625 1.746094 25.015625 1.59375 24.9375 C 1.441406 24.863281 1.3125 24.832031 1.207031 24.808594 C 1.105469 24.785156 1.035156 24.765625 1.023438 24.746094 C 1.011719 24.726562 1.050781 24.703125 1.140625 24.632812 Z M 2.191406 26.898438 C 2.523438 27.457031 3.140625 28.441406 4.183594 29.652344 C 5.226562 30.855469 6.699219 32.289062 7.882812 33.277344 C 9.0625 34.261719 9.957031 34.800781 10.601562 35.148438 C 11.246094 35.503906 11.640625 35.664062 11.847656 35.71875 C 12.054688 35.777344 12.078125 35.734375 11.816406 35.570312 C 11.5625 35.410156 11.027344 35.128906 10.164062 34.527344 C 9.300781 33.925781 8.105469 33 6.984375 31.789062 C 5.863281 30.574219 4.828125 29.074219 4.257812 28.273438 C 3.691406 27.46875 3.601562 27.363281 3.433594 27.230469 C 3.265625 27.09375 3.023438 26.933594 2.800781 26.777344 C 2.582031 26.625 2.390625 26.484375 2.242188 26.367188 C 2.097656 26.253906 2.003906 26.171875 1.929688 26.125 C 1.859375 26.078125 1.808594 26.074219 1.808594 26.136719 C 1.808594 26.203125 1.859375 26.339844 2.191406 26.898438 "/></g><path style=" stroke:none;fill-rule:nonzero;fill:#ffffff;fill-opacity:1;" d="M 17.621094 33.207031 L 19.980469 33.207031 L 19.980469 33.859375 L 17.621094 33.859375 Z M 17.621094 33.207031 "/><g style="fill:#ffffff;fill-opacity:1;"><g transform="translate(17.620131, 32.552383)"><path style="stroke:none" d="M 1.265625 0.078125 C 1.160156 0.078125 1.066406 0.0507812 0.984375 0 C 0.910156 -0.0390625 0.847656 -0.101562 0.796875 -0.1875 C 0.742188 -0.269531 0.71875 -0.359375 0.71875 -0.453125 C 0.71875 -0.554688 0.742188 -0.648438 0.796875 -0.734375 C 0.847656 -0.816406 0.910156 -0.878906 0.984375 -0.921875 C 1.066406 -0.972656 1.160156 -1 1.265625 -1 C 1.359375 -1 1.445312 -0.972656 1.53125 -0.921875 C 1.613281 -0.878906 1.675781 -0.816406 1.71875 -0.734375 C 1.769531 -0.648438 1.796875 -0.554688 1.796875 -0.453125 C 1.796875 -0.359375 1.769531 -0.269531 1.71875 -0.1875 C 1.675781 -0.101562 1.613281 -0.0390625 1.53125 0 C 1.445312 0.0507812 1.359375 0.078125 1.265625 0.078125 Z M 1.265625 0.078125 "/></g></g></g></svg>